<svg width="1390" height="300" viewBox="0 0 1390 300" fill="none" xmlns="http://www.w3.org/2000/svg">
<path d="M469.612 213.405L532.831 109.938H565.496L490.902 236.378H448.344L373.525 109.938H406.392L469.612 213.405Z" fill="#131315"/>
<path d="M737.05 173.154C737.05 176.743 736.848 180.108 736.197 183.271H592.91C595.445 202.228 611.665 215.711 649.601 215.711C678.474 215.711 694.694 207.927 701.873 195.902H733.685C725.048 222.666 699.136 239.537 649.601 239.537C587.009 239.537 561.928 212.571 561.928 173.154C561.928 133.737 587.009 106.569 649.601 106.569C712.193 106.569 737.05 133.759 737.05 173.154ZM592.91 162.834H706.068C703.757 144.079 687.515 130.596 649.601 130.596C611.687 130.596 595.445 144.079 592.91 162.834Z" fill="#131315"/>
<path d="M785.397 236.373H755.47V109.934H785.397V141.118C795.313 120.456 816.805 106.569 854.719 106.569V136.496C804.556 136.496 785.397 156.732 785.397 186.233V236.396V236.373Z" fill="#131315"/>
<path d="M932.836 74.1096V109.937H1014.61V137.329H932.836V179.483C932.836 199.719 941.272 211.093 980.038 211.093C992.893 211.093 1005.32 209.613 1014.61 207.504V235.524C1002.18 238.261 989.528 239.742 972.455 239.742C917.873 239.742 902.909 218.25 902.909 180.74V137.329H863.29V109.937H902.909V80.8399L932.836 74.0872V74.1096Z" fill="#131315"/>
<path d="M1199.6 173.154C1199.6 176.743 1199.4 180.108 1198.75 183.272H1055.46C1058 202.229 1074.22 215.712 1112.15 215.712C1141.03 215.712 1157.25 207.927 1164.42 195.902H1196.24C1187.6 222.666 1161.69 239.537 1112.15 239.537C1049.56 239.537 1024.48 212.571 1024.48 173.154C1024.48 133.737 1049.56 106.569 1112.15 106.569C1174.74 106.569 1199.6 133.759 1199.6 173.154ZM1055.46 162.834H1168.62C1166.31 144.079 1150.07 130.596 1112.15 130.596C1074.24 130.596 1058 144.079 1055.46 162.834Z" fill="#131315"/>
<path d="M1353.75 109.936H1390L1331.42 173.156L1390 236.375H1353.75L1308.03 186.863H1247.97V236.375H1218.04V67.782H1247.97V159.448H1308.03L1353.75 109.936Z" fill="#131315"/>
<path d="M206.217 237.994C216.674 237.994 225.151 229.517 225.151 219.061C225.151 208.604 216.674 200.127 206.217 200.127C195.76 200.127 187.283 208.604 187.283 219.061C187.283 229.517 195.76 237.994 206.217 237.994Z" fill="#131315"/>
<path d="M206.082 182.06C215.077 182.06 222.369 174.768 222.369 165.773C222.369 156.778 215.077 149.485 206.082 149.485C197.086 149.485 189.794 156.778 189.794 165.773C189.794 174.768 197.086 182.06 206.082 182.06Z" fill="#131315"/>
<path d="M205.968 131.418C213.49 131.418 219.587 125.321 219.587 117.799C219.587 110.278 213.49 104.181 205.968 104.181C198.447 104.181 192.35 110.278 192.35 117.799C192.35 125.321 198.447 131.418 205.968 131.418Z" fill="#131315"/>
<path d="M205.829 86.0916C211.889 86.0916 216.801 81.1791 216.801 75.1192C216.801 69.0592 211.889 64.1467 205.829 64.1467C199.769 64.1467 194.856 69.0592 194.856 75.1192C194.856 81.1791 199.769 86.0916 205.829 86.0916Z" fill="#131315"/>
<path d="M205.69 46.0793C210.288 46.0793 214.016 42.3515 214.016 37.753C214.016 33.1545 210.288 29.4268 205.69 29.4268C201.091 29.4268 197.363 33.1545 197.363 37.753C197.363 42.3515 201.091 46.0793 205.69 46.0793Z" fill="#131315"/>
<path d="M205.551 11.3603C208.688 11.3603 211.231 8.81713 211.231 5.68009C211.231 2.54305 208.688 0 205.551 0C202.414 0 199.871 2.54305 199.871 5.68009C199.871 8.81713 202.414 11.3603 205.551 11.3603Z" fill="#131315"/>
<path d="M168.328 265.414C178.785 265.414 187.262 256.937 187.262 246.48C187.262 236.024 178.785 227.547 168.328 227.547C157.871 227.547 149.395 236.024 149.395 246.48C149.395 256.937 157.871 265.414 168.328 265.414Z" fill="#131315"/>
<path d="M168.212 209.48C177.208 209.48 184.5 202.187 184.5 193.192C184.5 184.197 177.208 176.905 168.212 176.905C159.217 176.905 151.925 184.197 151.925 193.192C151.925 202.187 159.217 209.48 168.212 209.48Z" fill="#131315"/>
<path d="M244.268 209.48C253.263 209.48 260.556 202.187 260.556 193.192C260.556 184.197 253.263 176.905 244.268 176.905C235.273 176.905 227.98 184.197 227.98 193.192C227.98 202.187 235.273 209.48 244.268 209.48Z" fill="#131315"/>
<path d="M243.996 161.598C250.056 161.598 254.968 156.686 254.968 150.626C254.968 144.566 250.056 139.653 243.996 139.653C237.936 139.653 233.023 144.566 233.023 150.626C233.023 156.686 237.936 161.598 243.996 161.598Z" fill="#131315"/>
<path d="M243.857 121.564C248.455 121.564 252.183 117.836 252.183 113.237C252.183 108.639 248.455 104.911 243.857 104.911C239.258 104.911 235.53 108.639 235.53 113.237C235.53 117.836 239.258 121.564 243.857 121.564Z" fill="#131315"/>
<path d="M243.741 86.8444C246.878 86.8444 249.421 84.3013 249.421 81.1642C249.421 78.0272 246.878 75.4841 243.741 75.4841C240.604 75.4841 238.061 78.0272 238.061 81.1642C238.061 84.3013 240.604 86.8444 243.741 86.8444Z" fill="#131315"/>
<path d="M130.505 299.221C142.423 299.221 152.085 289.559 152.085 277.641C152.085 265.723 142.423 256.061 130.505 256.061C118.586 256.061 108.925 265.723 108.925 277.641C108.925 289.559 118.586 299.221 130.505 299.221Z" fill="#131315"/>
<path d="M130.368 237.994C140.825 237.994 149.302 229.517 149.302 219.061C149.302 208.604 140.825 200.127 130.368 200.127C119.912 200.127 111.435 208.604 111.435 219.061C111.435 229.517 119.912 237.994 130.368 237.994Z" fill="#131315"/>
<path d="M92.4767 265.414C102.934 265.414 111.41 256.937 111.41 246.48C111.41 236.023 102.934 227.547 92.4767 227.547C82.0199 227.547 73.543 236.023 73.543 246.48C73.543 256.937 82.0199 265.414 92.4767 265.414Z" fill="#131315"/>
<path d="M92.3638 209.48C101.359 209.48 108.651 202.188 108.651 193.192C108.651 184.197 101.359 176.905 92.3638 176.905C83.3684 176.905 76.0762 184.197 76.0762 193.192C76.0762 202.188 83.3684 209.48 92.3638 209.48Z" fill="#131315"/>
<path d="M54.2926 237.994C64.7495 237.994 73.2264 229.517 73.2264 219.061C73.2264 208.604 64.7495 200.127 54.2926 200.127C43.8358 200.127 35.3589 208.604 35.3589 219.061C35.3589 229.517 43.8358 237.994 54.2926 237.994Z" fill="#131315"/>
<path d="M54.1538 182.06C63.1492 182.06 70.4414 174.768 70.4414 165.773C70.4414 156.778 63.1492 149.485 54.1538 149.485C45.1584 149.485 37.8662 156.778 37.8662 165.773C37.8662 174.768 45.1584 182.06 54.1538 182.06Z" fill="#131315"/>
<path d="M54.0459 131.418C61.5672 131.418 67.6645 125.321 67.6645 117.799C67.6645 110.278 61.5672 104.181 54.0459 104.181C46.5245 104.181 40.4272 110.278 40.4272 117.799C40.4272 125.321 46.5245 131.418 54.0459 131.418Z" fill="#131315"/>
<path d="M53.9041 86.0916C59.964 86.0916 64.8765 81.1791 64.8765 75.1192C64.8765 69.0592 59.964 64.1467 53.9041 64.1467C47.8442 64.1467 42.9316 69.0592 42.9316 75.1192C42.9316 81.1791 47.8442 86.0916 53.9041 86.0916Z" fill="#131315"/>
<path d="M53.7682 46.0793C58.3667 46.0793 62.0945 42.3515 62.0945 37.753C62.0945 33.1545 58.3667 29.4268 53.7682 29.4268C49.1697 29.4268 45.4419 33.1545 45.4419 37.753C45.4419 42.3515 49.1697 46.0793 53.7682 46.0793Z" fill="#131315"/>
<path d="M53.6289 11.3603C56.7659 11.3603 59.309 8.81713 59.309 5.68009C59.309 2.54305 56.7659 0 53.6289 0C50.4918 0 47.9487 2.54305 47.9487 5.68009C47.9487 8.81713 50.4918 11.3603 53.6289 11.3603Z" fill="#131315"/>
<path d="M16.2876 209.48C25.283 209.48 32.5752 202.188 32.5752 193.192C32.5752 184.197 25.283 176.905 16.2876 176.905C7.2922 176.905 0 184.197 0 193.192C0 202.188 7.2922 209.48 16.2876 209.48Z" fill="#131315"/>
<path d="M16.0154 161.598C22.0753 161.598 26.9879 156.686 26.9879 150.626C26.9879 144.566 22.0753 139.653 16.0154 139.653C9.9555 139.653 5.04297 144.566 5.04297 150.626C5.04297 156.686 9.9555 161.598 16.0154 161.598Z" fill="#131315"/>
<path d="M15.902 121.564C20.5005 121.564 24.2283 117.836 24.2283 113.237C24.2283 108.639 20.5005 104.911 15.902 104.911C11.3035 104.911 7.57568 108.639 7.57568 113.237C7.57568 117.836 11.3035 121.564 15.902 121.564Z" fill="#131315"/>
<path d="M15.7602 86.8446C18.8973 86.8446 21.4403 84.3015 21.4403 81.1645C21.4403 78.0274 18.8973 75.4844 15.7602 75.4844C12.6232 75.4844 10.0801 78.0274 10.0801 81.1645C10.0801 84.3015 12.6232 86.8446 15.7602 86.8446Z" fill="#131315"/>
</svg>
