<svg width="34" height="40" viewBox="0 0 34 40" fill="none" xmlns="http://www.w3.org/2000/svg">
<path d="M26.6994 31.5533C28.0532 31.5533 29.1507 30.4558 29.1507 29.102C29.1507 27.7481 28.0532 26.6506 26.6994 26.6506C25.3456 26.6506 24.248 27.7481 24.248 29.102C24.248 30.4558 25.3456 31.5533 26.6994 31.5533Z" fill="#4A4AF6"/>
<path d="M26.681 24.3115C27.8456 24.3115 28.7898 23.3674 28.7898 22.2028C28.7898 21.0381 27.8456 20.094 26.681 20.094C25.5164 20.094 24.5723 21.0381 24.5723 22.2028C24.5723 23.3674 25.5164 24.3115 26.681 24.3115Z" fill="#4A4AF6"/>
<path d="M26.6665 17.7549C27.6403 17.7549 28.4297 16.9655 28.4297 15.9917C28.4297 15.0179 27.6403 14.2285 26.6665 14.2285C25.6927 14.2285 24.9033 15.0179 24.9033 15.9917C24.9033 16.9655 25.6927 17.7549 26.6665 17.7549Z" fill="#4A4AF6"/>
<path d="M26.6491 11.8864C27.4337 11.8864 28.0697 11.2504 28.0697 10.4658C28.0697 9.68125 27.4337 9.04523 26.6491 9.04523C25.8645 9.04523 25.2285 9.68125 25.2285 10.4658C25.2285 11.2504 25.8645 11.8864 26.6491 11.8864Z" fill="#4A4AF6"/>
<path d="M26.6307 6.70609C27.2261 6.70609 27.7087 6.22344 27.7087 5.62808C27.7087 5.03272 27.2261 4.55008 26.6307 4.55008C26.0354 4.55008 25.5527 5.03272 25.5527 5.62808C25.5527 6.22344 26.0354 6.70609 26.6307 6.70609Z" fill="#4A4AF6"/>
<path d="M26.6133 2.21099C27.0195 2.21099 27.3487 1.88173 27.3487 1.47558C27.3487 1.06942 27.0195 0.740173 26.6133 0.740173C26.2072 0.740173 25.8779 1.06942 25.8779 1.47558C25.8779 1.88173 26.2072 2.21099 26.6133 2.21099Z" fill="#4A4AF6"/>
<path d="M21.7931 35.1034C23.147 35.1034 24.2445 34.0058 24.2445 32.652C24.2445 31.2982 23.147 30.2007 21.7931 30.2007C20.4393 30.2007 19.3418 31.2982 19.3418 32.652C19.3418 34.0058 20.4393 35.1034 21.7931 35.1034Z" fill="#4A4AF6"/>
<path d="M21.7787 27.8615C22.9433 27.8615 23.8874 26.9174 23.8874 25.7527C23.8874 24.5881 22.9433 23.644 21.7787 23.644C20.614 23.644 19.6699 24.5881 19.6699 25.7527C19.6699 26.9174 20.614 27.8615 21.7787 27.8615Z" fill="#4A4AF6"/>
<path d="M31.6254 27.8615C32.79 27.8615 33.7341 26.9174 33.7341 25.7527C33.7341 24.5881 32.79 23.644 31.6254 23.644C30.4607 23.644 29.5166 24.5881 29.5166 25.7527C29.5166 26.9174 30.4607 27.8615 31.6254 27.8615Z" fill="#4A4AF6"/>
<path d="M31.6079 27.5308C32.5817 27.5308 33.3711 26.7414 33.3711 25.7676C33.3711 24.7938 32.5817 24.0044 31.6079 24.0044C30.6341 24.0044 29.8447 24.7938 29.8447 25.7676C29.8447 26.7414 30.6341 27.5308 31.6079 27.5308Z" fill="#4A4AF6"/>
<path d="M31.5905 21.6623C32.3751 21.6623 33.0111 21.0263 33.0111 20.2417C33.0111 19.4572 32.3751 18.8211 31.5905 18.8211C30.8059 18.8211 30.1699 19.4572 30.1699 20.2417C30.1699 21.0263 30.8059 21.6623 31.5905 21.6623Z" fill="#4A4AF6"/>
<path d="M31.5721 16.4791C32.1675 16.4791 32.6501 15.9965 32.6501 15.4011C32.6501 14.8057 32.1675 14.3231 31.5721 14.3231C30.9768 14.3231 30.4941 14.8057 30.4941 15.4011C30.4941 15.9965 30.9768 16.4791 31.5721 16.4791Z" fill="#4A4AF6"/>
<path d="M31.5577 11.9838C31.9638 11.9838 32.2931 11.6546 32.2931 11.2484C32.2931 10.8423 31.9638 10.513 31.5577 10.513C31.1515 10.513 30.8223 10.8423 30.8223 11.2484C30.8223 11.6546 31.1515 11.9838 31.5577 11.9838Z" fill="#4A4AF6"/>
<path d="M16.8965 39.4804C18.4395 39.4804 19.6904 38.2295 19.6904 36.6864C19.6904 35.1433 18.4395 33.8925 16.8965 33.8925C15.3534 33.8925 14.1025 35.1433 14.1025 36.6864C14.1025 38.2295 15.3534 39.4804 16.8965 39.4804Z" fill="#4A4AF6"/>
<path d="M16.8791 31.5533C18.2329 31.5533 19.3304 30.4558 19.3304 29.102C19.3304 27.7481 18.2329 26.6506 16.8791 26.6506C15.5252 26.6506 14.4277 27.7481 14.4277 29.102C14.4277 30.4558 15.5252 31.5533 16.8791 31.5533Z" fill="#4A4AF6"/>
<path d="M11.9728 35.1034C13.3267 35.1034 14.4242 34.0058 14.4242 32.652C14.4242 31.2982 13.3267 30.2007 11.9728 30.2007C10.619 30.2007 9.52148 31.2982 9.52148 32.652C9.52148 34.0058 10.619 35.1034 11.9728 35.1034Z" fill="#4A4AF6"/>
<path d="M11.9584 27.8615C13.123 27.8615 14.0671 26.9174 14.0671 25.7527C14.0671 24.5881 13.123 23.644 11.9584 23.644C10.7937 23.644 9.84961 24.5881 9.84961 25.7527C9.84961 26.9174 10.7937 27.8615 11.9584 27.8615Z" fill="#4A4AF6"/>
<path d="M7.02947 31.5533C8.38332 31.5533 9.48082 30.4558 9.48082 29.102C9.48082 27.7481 8.38332 26.6506 7.02947 26.6506C5.67563 26.6506 4.57812 27.7481 4.57812 29.102C4.57812 30.4558 5.67563 31.5533 7.02947 31.5533Z" fill="#4A4AF6"/>
<path d="M7.0111 24.3115C8.17573 24.3115 9.11985 23.3673 9.11985 22.2027C9.11985 21.0381 8.17573 20.094 7.0111 20.094C5.84646 20.094 4.90234 21.0381 4.90234 22.2027C4.90234 23.3673 5.84646 24.3115 7.0111 24.3115Z" fill="#4A4AF6"/>
<path d="M6.9966 17.7549C7.97039 17.7549 8.7598 16.9655 8.7598 15.9917C8.7598 15.0179 7.97039 14.2285 6.9966 14.2285C6.02281 14.2285 5.2334 15.0179 5.2334 15.9917C5.2334 16.9655 6.02281 17.7549 6.9966 17.7549Z" fill="#4A4AF6"/>
<path d="M6.9792 11.8865C7.76377 11.8865 8.3998 11.2504 8.3998 10.4659C8.3998 9.68128 7.76377 9.04526 6.9792 9.04526C6.19462 9.04526 5.55859 9.68128 5.55859 10.4659C5.55859 11.2504 6.19462 11.8865 6.9792 11.8865Z" fill="#4A4AF6"/>
<path d="M6.96082 6.70612C7.55618 6.70612 8.03882 6.22348 8.03882 5.62811C8.03882 5.03275 7.55618 4.55011 6.96082 4.55011C6.36545 4.55011 5.88281 5.03275 5.88281 5.62811C5.88281 6.22348 6.36545 6.70612 6.96082 6.70612Z" fill="#4A4AF6"/>
<path d="M6.94341 2.21099C7.34957 2.21099 7.67882 1.88173 7.67882 1.47558C7.67882 1.06942 7.34957 0.740173 6.94341 0.740173C6.53726 0.740173 6.20801 1.06942 6.20801 1.47558C6.20801 1.88173 6.53726 2.21099 6.94341 2.21099Z" fill="#4A4AF6"/>
<path d="M2.10875 27.8615C3.27338 27.8615 4.2175 26.9174 4.2175 25.7528C4.2175 24.5882 3.27338 23.644 2.10875 23.644C0.94412 23.644 0 24.5882 0 25.7528C0 26.9174 0.94412 27.8615 2.10875 27.8615Z" fill="#4A4AF6"/>
<path d="M2.09133 27.5308C3.06511 27.5308 3.85453 26.7414 3.85453 25.7676C3.85453 24.7938 3.06511 24.0044 2.09133 24.0044C1.11754 24.0044 0.328125 24.7938 0.328125 25.7676C0.328125 26.7414 1.11754 27.5308 2.09133 27.5308Z" fill="#4A4AF6"/>
<path d="M2.07295 21.6623C2.85752 21.6623 3.49355 21.0263 3.49355 20.2417C3.49355 19.4571 2.85752 18.8211 2.07295 18.8211C1.28837 18.8211 0.652344 19.4571 0.652344 20.2417C0.652344 21.0263 1.28837 21.6623 2.07295 21.6623Z" fill="#4A4AF6"/>
<path d="M2.05847 16.4791C2.65384 16.4791 3.13648 15.9965 3.13648 15.4011C3.13648 14.8057 2.65384 14.3231 2.05847 14.3231C1.46311 14.3231 0.980469 14.8057 0.980469 15.4011C0.980469 15.9965 1.46311 16.4791 2.05847 16.4791Z" fill="#4A4AF6"/>
<path d="M2.04107 11.9839C2.44722 11.9839 2.77647 11.6546 2.77647 11.2485C2.77647 10.8423 2.44722 10.5131 2.04107 10.5131C1.63492 10.5131 1.30566 10.8423 1.30566 11.2485C1.30566 11.6546 1.63492 11.9839 2.04107 11.9839Z" fill="#4A4AF6"/>
</svg>
