<svg id="SvgjsSvg1011" width="288" height="288" xmlns="http://www.w3.org/2000/svg" version="1.1" xmlns:xlink="http://www.w3.org/1999/xlink" xmlns:svgjs="http://svgjs.com/svgjs"><defs id="SvgjsDefs1012"></defs><g id="SvgjsG1013"><svg xmlns="http://www.w3.org/2000/svg" viewBox="0 0 80 80" width="288" height="288"><path d="m5.622 64.543 17 6.947c.012.005.026.003.038.008.11.04.224.066.34.066s.23-.026.34-.066c.012-.005.026-.003.038-.008L40 64.697l16.622 6.793c.012.005.026.003.038.008.11.04.224.066.34.066s.23-.026.34-.066c.012-.005.026-.003.038-.008l17-6.947a1 1 0 0 0 .622-.926V44.17a.99.99 0 0 0-.05-.295c-.007-.023-.017-.043-.025-.066a.993.993 0 0 0-.158-.274c-.006-.008-.01-.017-.017-.025a.995.995 0 0 0-.192-.17c-.028-.019-.058-.029-.087-.044-.012-.006-.019-.018-.03-.024L58 35.21V17.772a.99.99 0 0 0-.05-.295c-.007-.022-.017-.043-.025-.065a.993.993 0 0 0-.158-.274c-.006-.008-.01-.018-.017-.025a.995.995 0 0 0-.192-.17c-.027-.019-.058-.029-.086-.044-.012-.006-.02-.018-.032-.024l-17-8.337a.997.997 0 0 0-.88 0l-17 8.337c-.012.006-.02.017-.03.023-.03.016-.06.026-.088.044a.995.995 0 0 0-.192.17c-.007.008-.01.018-.017.026a.993.993 0 0 0-.158.274c-.008.022-.018.043-.025.065a.99.99 0 0 0-.05.295V35.21L5.56 43.271c-.012.006-.019.017-.03.023-.03.016-.06.026-.088.045a.995.995 0 0 0-.192.17c-.007.008-.01.017-.017.025a.993.993 0 0 0-.158.274c-.008.023-.018.043-.025.066a.99.99 0 0 0-.05.295v19.448a1 1 0 0 0 .622.926zM23 36.946l.756.371 13.804 6.769L23 50.036l-14.56-5.95L23 36.946zm34 13.09-14.56-5.95 13.804-6.769.756-.37 14.56 7.139L57 50.036zM56 35.21l-.254.124L41 42.564V25.391l15-6.13V35.21zm-17 7.353-14.746-7.229L24 35.21V19.262l15 6.13v17.171zM7 45.658l15 6.13v17.287l-15-6.13V45.658zm17 6.13 15-6.13v17.287l-15 6.13V51.788zm17-6.13 15 6.13v17.287l-15-6.13V45.658zm32 17.287-15 6.13V51.788l15-6.13v17.287zM40 10.55l14.56 7.14L40 23.64l-14.56-5.95L40 10.55z" fill="#4a4af6" class="color000 svgShape"></path></svg></g></svg>