<svg xmlns="http://www.w3.org/2000/svg" viewBox="0 0 32 32">
<path fill="rgba(0, 0, 0, 0.00)" d="M20.29,8.5A2.09,2.09,0,0,1,19.65,10a2.07,2.07,0,0,1-1.51.63H16V16H10.64V13.86A2.15,2.15,0,0,0,8.5,11.71,2.09,2.09,0,0,0,7,12.35a2.07,2.07,0,0,0-.63,1.51V16H1V3.14A2.14,2.14,0,0,1,3.14,1H16V6.36h2.14A2.15,2.15,0,0,1,20.29,8.5Z"/>
<path fill="#5BC0F8" d="M11.71,23.5A2.09,2.09,0,0,0,12.35,25a2.07,2.07,0,0,0,1.51.63H16V31H3.14A2.14,2.14,0,0,1,1,28.86V16H6.36V13.86A2.07,2.07,0,0,1,7,12.35a2.09,2.09,0,0,1,1.51-.64,2.15,2.15,0,0,1,2.14,2.15V16H16v5.36H13.86A2.15,2.15,0,0,0,11.71,23.5Z"/>
<path fill="rgba(0, 0, 0, 0.00)" d="M31,16V28.86A2.14,2.14,0,0,1,28.86,31H16V25.64H13.86A2.07,2.07,0,0,1,12.35,25a2.09,2.09,0,0,1-.64-1.51,2.15,2.15,0,0,1,2.15-2.14H16V16h5.36v2.14A2.07,2.07,0,0,0,22,19.65a2.09,2.09,0,0,0,1.51.64,2.15,2.15,0,0,0,2.14-2.15V16Z"/>
<path fill="#4A4AF6" d="M31,3.14V16H25.64v2.14a2.15,2.15,0,0,1-2.14,2.15A2.09,2.09,0,0,1,22,19.65a2.07,2.07,0,0,1-.63-1.51V16H16V10.64h2.14A2.07,2.07,0,0,0,19.65,10a2.09,2.09,0,0,0,.64-1.51,2.15,2.15,0,0,0-2.15-2.14H16V1H28.86A2.14,2.14,0,0,1,31,3.14Z"/>
<path fill="#5BC0F8" d="M14,29.25H1a2.29,2.29,0,0,0,.08.28.38.38,0,0,0,0,.1,1.63,1.63,0,0,0,.11.23l.06.12a1.33,1.33,0,0,0,.14.19,1.13,1.13,0,0,0,.1.13l.15.15.14.12.16.11.19.1.16.07a1,1,0,0,0,.24.08l.13,0a2.85,2.85,0,0,0,.41,0H16V29.25Z"/>
<path fill="rgba(0, 0, 0, 0.00)" d="M29,27.11a2.14,2.14,0,0,1-2.14,2.14H16V31H28.86A2.14,2.14,0,0,0,31,28.86V16H29Z"/>
<path fill="#4A4AF6" d="M31,2.72l-.06-.18-.06-.21c0-.09-.09-.17-.13-.25L30.65,2a2.75,2.75,0,0,0-.22-.26l0,0A2.13,2.13,0,0,0,29,1h0a2.45,2.45,0,0,1,0,.38V16h2V3.14A3,3,0,0,0,31,2.72Z"/>
</svg>