<svg width="23" height="24" viewBox="0 0 23 24" fill="none" xmlns="http://www.w3.org/2000/svg">
<path fill-rule="evenodd" clip-rule="evenodd" d="M20.9196 6.98141C19.8315 7.39405 18.9763 8.32767 18.5984 9.51548L17.8932 11.7315C17.883 11.7653 17.8542 11.788 17.8216 11.788C17.7891 11.788 17.7602 11.7653 17.7501 11.7315L17.0449 9.51548C16.6669 8.32761 15.8115 7.39397 14.7234 6.98141L12.6936 6.21165C12.6633 6.20015 12.643 6.169 12.643 6.13401C12.643 6.09901 12.6633 6.06786 12.6936 6.05636L14.7234 5.2866C15.8115 4.87404 16.6669 3.94041 17.0449 2.75253L17.7501 0.536517C17.7602 0.502782 17.7891 0.47998 17.8216 0.47998C17.8542 0.47998 17.883 0.502782 17.8932 0.536517L18.5984 2.75253C18.9763 3.94035 19.8315 4.87397 20.9196 5.2866L22.9495 6.05636C22.9797 6.06786 23 6.09901 23 6.13401C23 6.169 22.9797 6.20015 22.9495 6.21165L20.9196 6.98141ZM11.995 13.8956C10.4838 14.4688 9.2961 15.7655 8.77122 17.4152L7.7914 20.493C7.77701 20.5394 7.73716 20.5705 7.69234 20.5705C7.64752 20.5705 7.60768 20.5394 7.59328 20.493L6.61346 17.4152C6.08858 15.7655 4.90088 14.4688 3.38973 13.8956L0.570215 12.8265C0.528174 12.8105 0.5 12.7673 0.5 12.7186C0.5 12.6701 0.528174 12.6269 0.570215 12.6108L3.38973 11.5418C4.90089 10.9686 6.08859 9.67188 6.61346 8.02215L7.59328 4.94436C7.60768 4.89803 7.64752 4.86684 7.69234 4.86684C7.73716 4.86684 7.77701 4.89803 7.7914 4.94436L8.77122 8.02215C9.2961 9.67188 10.4838 10.9686 11.995 11.5418L14.8145 12.6108C14.8565 12.6269 14.8847 12.6701 14.8847 12.7186C14.8847 12.7673 14.8565 12.8105 14.8145 12.8265L11.995 13.8956ZM17.7523 21.7C18.0547 20.7498 18.7387 20.0029 19.6091 19.6727L21.2337 19.0569C21.2578 19.0477 21.2742 19.0228 21.2742 18.9947C21.2742 18.9668 21.2578 18.9418 21.2337 18.9326L19.6091 18.3169C18.7387 17.9866 18.0547 17.2398 17.7523 16.2895L17.188 14.5168C17.1805 14.4888 17.1569 14.4696 17.1302 14.4696C17.1035 14.4696 17.08 14.4888 17.0725 14.5168L16.5095 16.2895C16.2069 17.2401 15.5222 17.987 14.6514 18.3169L13.0282 18.9326C13.004 18.9418 12.9877 18.9668 12.9877 18.9947C12.9877 19.0228 13.004 19.0477 13.0282 19.0569L14.6514 19.6727C15.5222 20.0025 16.2069 20.7494 16.5095 21.7L17.0725 23.4728C17.08 23.5008 17.1035 23.52 17.1302 23.52C17.1569 23.52 17.1805 23.5008 17.188 23.4728L17.7523 21.7Z" fill="url(#paint0_linear_34935_550)"/>
<defs>
<linearGradient id="paint0_linear_34935_550" x1="23" y1="-11.04" x2="2.45632" y2="15.1952" gradientUnits="userSpaceOnUse">
<stop stop-color="#CA6615"/>
<stop offset="1" stop-color="#F0BF59"/>
</linearGradient>
</defs>
</svg>
