<?xml version="1.0" standalone="no"?>
<!DOCTYPE svg PUBLIC "-//W3C//DTD SVG 20010904//EN"
 "http://www.w3.org/TR/2001/REC-SVG-20010904/DTD/svg10.dtd">
<svg version="1.0" xmlns="http://www.w3.org/2000/svg"
 width="512.000000pt" height="512.000000pt" viewBox="0 0 512.000000 512.000000"
 preserveAspectRatio="xMidYMid meet">

<g transform="translate(0.000000,512.000000) scale(0.100000,-0.100000)"
fill="#000000" stroke="none">
<path d="M1693 5100 c-17 -10 -37 -28 -42 -39 -7 -13 -11 -126 -11 -315 l0
-296 -439 0 -440 0 -25 -22 c-18 -16 -131 -264 -376 -826 l-350 -804 0 -425
c0 -272 4 -431 10 -444 17 -30 64 -49 125 -49 l55 0 0 -906 c0 -602 3 -912 10
-925 28 -52 -114 -49 2350 -49 2464 0 2322 -3 2350 49 7 13 10 323 10 925 l0
906 55 0 c61 0 108 19 125 49 6 13 10 172 10 444 l0 425 -350 804 c-245 562
-358 810 -376 826 l-25 22 -440 0 -439 0 0 298 c0 326 0 326 -60 357 -25 13
-142 15 -862 15 -807 0 -834 -1 -865 -20z m1637 -875 l0 -745 -770 0 -770 0 0
215 c0 227 -5 255 -47 274 -36 16 -51 14 -78 -14 -21 -20 -25 -34 -25 -79 l0
-54 -135 -4 c-166 -4 -160 1 -244 -192 -64 -145 -72 -186 -46 -236 33 -64 -51
-60 1345 -60 1396 0 1312 -4 1345 60 26 50 18 90 -46 236 -84 193 -78 188
-244 192 l-135 4 0 239 0 239 407 -2 407 -3 312 -715 c172 -393 313 -718 313
-722 1 -5 -76 -8 -169 -8 -168 0 -171 0 -195 -25 -32 -31 -32 -69 0 -100 24
-25 26 -25 215 -25 l190 0 0 -335 0 -335 -2400 0 -2400 0 0 335 0 335 2059 0
2058 0 27 21 c34 27 35 71 1 104 l-24 25 -2041 0 c-1122 0 -2040 3 -2039 8 0
4 141 329 312 722 l313 715 407 3 407 2 0 -40 c0 -71 67 -105 121 -61 l24 19
3 376 3 376 769 0 770 0 0 -745z m-1690 -650 l0 -95 -140 0 -140 0 26 58 c14
31 33 74 41 95 l15 37 99 0 99 0 0 -95z m2053 58 c8 -21 27 -64 41 -95 l26
-58 -140 0 -140 0 0 95 0 95 99 0 99 0 15 -37z m1077 -2618 l0 -865 -2210 0
-2210 0 0 865 0 865 2210 0 2210 0 0 -865z"/>
<path d="M2825 4609 c-11 -6 -102 -93 -202 -192 l-182 -181 -69 66 c-113 109
-137 106 -279 -36 -103 -102 -103 -102 -103 -151 l0 -49 198 -198 c200 -200
224 -217 280 -203 18 4 136 115 345 323 l317 317 0 49 c0 48 -1 50 -92 143
-119 121 -158 142 -213 112z m98 -207 l47 -47 -265 -265 -265 -265 -145 145
-145 145 50 50 50 50 78 -78 c117 -116 103 -121 342 118 107 107 197 195 200
195 3 0 27 -21 53 -48z"/>
</g>
</svg>
